# Wavefront OBJ file made by Mineways version 12.06, http://mineways.com
# World: RepoMap
# Terrain file name: C:\Users\Alex Jasmin\Downloads\mineways\mineways\TileMaker\terrainExt_BareBones.png
# Color scheme: Standard
# Thu Apr 24 10:58:32 2025

# Selection location min to max: 29, -8, 35 to 33, 319, 39
#   Non-empty selection location min to max: 29, -8, 35 to 33, -2, 39

# Set render type: Wavefront OBJ absolute indices
# Units for the model vertex data itself: meters

# 126 vertices, 124 faces (248 triangles), 61 blocks, 0 billboards/bits
# block dimensions: X=5 by Y=7 (height) by Z=5 blocks
# Elevation shading: no
# Lighting: no
# Transparent water: no
# Map grid: no
# File type: Export all textures to three large images
# Texture output RGB: no
# Texture output A: no
# Texture output RGBA: no
# Export separate types: YES
# Export individual blocks: no
#   Material per family: YES
#   Split by block type: YES
# Make groups objects: no
# Custom material: YES
# Export lesser blocks: YES
# Fatten lesser blocks: no
# Simplify mesh: no
# Double all billboard faces: no
# Create composite overlay faces: no
# Center model: YES
# Use biomes: no
# Create block faces at the borders: YES
# Tree leaves solid: YES
# Rotate model 0.000000 degrees
# Make Z the up direction instead of Y: no
# Scale model by making each block 1000 mm high
# Data operation options:
#   Fill air bubbles: no; Seal off entrances: no; Fill in isolated tunnels in base of model: no
#   Connect parts sharing an edge: no; Connect corner tips: no; Weld all shared edges: no
#   Delete floating objects: trees and parts smaller than 16 blocks: no
#   Hollow out bottom of model, making the walls 1000 mm thick: no; Superhollow: no
# Melt snow blocks: no
#   Debug: show separate parts as colors: no
#   Debug: show weld blocks in bright colors: no

# Full world path: C:\Users\Alex Jasmin\AppData\Roaming\ModrinthApp\profiles\Minecraft Repo Map RESOURCE\saves\RepoMap
# Full terrainExt.png path: C:\Users\Alex Jasmin\Downloads\mineways\mineways\TileMaker\terrainExt_BareBones.png
# Full current path: C:\Users\Alex Jasmin\Downloads\mineways\mineways

# COMMON_MC_OBJ_START
# version: 1
# exporter: mineways
# world_name: RepoMap
# world_path: C:\Users\Alex Jasmin\AppData\Roaming\ModrinthApp\profiles\Minecraft Repo Map RESOURCE\saves\RepoMap
# export_bounds_min: (29, -8, 35)
# export_bounds_max: (33, 319, 39)
# export_offset: (-31.000000, 8.000000, -37.000000)
# block_scale: 1
# block_origin_offset: (0.000000, 0.000000, 0.000000)
# z_up: false
# texture_type: ATLAS
# has_split_blocks: true
# COMMON_MC_OBJ_END

mtllib Tree02.mtl

o RepoMap__29_-8_35_to_33_319_39
vn -1 0 0
vn 0 -1 0
vn 0 0 -1
vn 1 0 0
vn 0 1 0
vn 0 0 1
vn -0.707107 0 -0.707107
vn -0.707107 0 0.707107
vn 0.707107 0 -0.707107
vn 0.707107 0 0.707107
vn -0.707107 -0.707107 0
vn 0 -0.707107 -0.707107
vn 0.707107 -0.707107 0
vn 0 -0.707107 0.707107
vn -0.707107 0.707107 0
vn 0 0.707107 -0.707107
vn 0.707107 0.707107 0
vn 0 0.707107 0.707107
vn -0.92388 0 -0.382683
vn -0.92388 0 0.382683
vn 0.92388 0 -0.382683
vn 0.92388 0 0.382683
vn -0.382683 0 -0.92388
vn -0.382683 0 0.92388
vn 0.382683 0 -0.92388
vn 0.382683 0 0.92388
vn -0.397273 0.9177 0
vn 0.397273 -0.9177 0
vn 0.397273 0.9177 0
vn -0.397273 -0.9177 0
vn 0 0.9177 -0.397273
vn 0 -0.9177 0.397273
vn 0 0.9177 0.397273
vn 0 -0.9177 -0.397273
vn -0.440932 0.897541 0
vn 0.440932 -0.897541 0
vn 0.440932 0.897541 0
vn -0.440932 -0.897541 0
vn 0 0.897541 -0.440932
vn 0 -0.897541 0.440932
vn 0 0.897541 0.440932
vn 0 -0.897541 -0.440932
# oak_leaves
vt 0.915039062 0.983398438
vt 0.930664062 0.983398438
vt 0.930664062 0.999023438
vt 0.915039062 0.999023438
# oak_log
vt 0.352539062 0.983398438
vt 0.368164062 0.983398438
vt 0.368164062 0.999023438
vt 0.352539062 0.999023438
# oak_log_top
vt 0.370117188 0.983398438
vt 0.385742188 0.983398438
vt 0.385742188 0.999023438
vt 0.370117188 0.999023438
v -2 3 -2
v -2 3 -1
v -2 4 -1
v -2 4 -2
v -1 3 -1
v -1 3 -2
v -1 4 -2
v -1 4 -1
v -2 3 0
v -2 4 0
v -1 3 0
v -2 5 0
v -2 5 -1
v -1 5 -1
v -1 5 0
v -2 3 1
v -2 4 1
v -1 3 1
v -2 5 1
v -1 5 1
v -2 3 2
v -2 4 2
v -1 3 2
v -1 4 2
v -2 5 2
v -1 5 2
v -2 4 3
v -2 5 3
v -1 4 3
v -1 5 3
v 0 3 -1
v 0 3 -2
v 0 4 -2
v -1 5 -2
v 0 5 -2
v 0 5 -1
v 0 3 0
v -1 6 0
v -1 6 -1
v 0 6 -1
v 0 6 0
v 0 3 1
v -1 6 1
v 0 5 1
v 0 6 1
v -1 7 1
v -1 7 0
v 0 7 0
v 0 7 1
v 0 3 2
v 0 5 2
v -1 3 3
v 0 3 3
v 0 4 3
v 0 5 3
v 1 3 -1
v 1 3 -2
v 1 4 -2
v 1 5 -2
v 1 5 -1
v 1 3 0
v 1 6 -1
v 0 7 -1
v 1 7 -1
v 1 6 0
v 1 7 0
v 0 0 0
v 0 0 1
v 0 1 1
v 0 1 0
v 1 0 1
v 1 0 0
v 1 1 0
v 1 1 1
v 0 2 1
v 0 2 0
v 1 2 0
v 1 2 1
v 1 3 1
v 1 7 1
v 1 3 2
v 0 6 2
v 1 5 2
v 1 5 1
v 1 6 1
v 1 6 2
v 0 7 2
v 1 7 2
v 1 3 3
v 1 4 3
v 1 5 3
v 2 3 -1
v 2 3 -2
v 2 4 -2
v 2 4 -1
v 2 5 -2
v 2 5 -1
v 2 3 0
v 2 6 -1
v 2 5 0
v 2 6 0
v 2 3 1
v 2 5 1
v 2 6 1
v 2 7 0
v 2 7 1
v 2 3 2
v 2 5 2
v 2 3 3
v 2 4 3
v 2 5 3
v 3 3 0
v 3 3 -1
v 3 4 -1
v 3 4 0
v 3 5 -1
v 3 5 0
v 3 3 1
v 3 4 1
v 3 5 1
v 3 3 2
v 3 4 2
v 3 5 2
v 3 3 3
v 3 4 3
v 3 5 3

g Oak_Log
usemtl Oak_Log
f 68/6/1 69/7/1 70/8/1 67/5/1
f 68/12/2 67/9/2 72/10/2 71/11/2
f 67/6/3 70/7/3 73/8/3 72/5/3
f 71/5/4 72/6/4 73/7/4 74/8/4
f 68/5/6 71/6/6 74/7/6 69/8/6
f 69/6/1 75/7/1 76/8/1 70/5/1
f 70/6/3 76/7/3 77/8/3 73/5/3
f 74/5/4 73/6/4 77/7/4 78/8/4
f 69/5/6 74/6/6 78/7/6 75/8/6
f 75/6/1 42/7/1 37/8/1 76/5/1
f 76/6/3 37/7/3 61/8/3 77/5/3
f 78/5/4 77/6/4 61/7/4 79/8/4
f 75/5/6 78/6/6 79/7/6 42/8/6

g Oak_Leaves
usemtl Oak_Leaves
f 2/2/1 3/3/1 4/4/1 1/1/1
f 2/4/2 1/1/2 6/2/2 5/3/2
f 1/2/3 4/3/3 7/4/3 6/1/3
f 3/1/5 8/2/5 7/3/5 4/4/5
f 9/2/1 10/3/1 3/4/1 2/1/1
f 9/4/2 2/1/2 5/2/2 11/3/2
f 10/2/1 12/3/1 13/4/1 3/1/1
f 3/2/3 13/3/3 14/4/3 8/1/3
f 12/1/5 15/2/5 14/3/5 13/4/5
f 16/2/1 17/3/1 10/4/1 9/1/1
f 16/4/2 9/1/2 11/2/2 18/3/2
f 17/2/1 19/3/1 12/4/1 10/1/1
f 19/1/5 20/2/5 15/3/5 12/4/5
f 21/2/1 22/3/1 17/4/1 16/1/1
f 21/4/2 16/1/2 18/2/2 23/3/2
f 21/1/6 23/2/6 24/3/6 22/4/6
f 22/2/1 25/3/1 19/4/1 17/1/1
f 25/1/5 26/2/5 20/3/5 19/4/5
f 27/2/1 28/3/1 25/4/1 22/1/1
f 27/4/2 22/1/2 24/2/2 29/3/2
f 28/1/5 30/2/5 26/3/5 25/4/5
f 27/1/6 29/2/6 30/3/6 28/4/6
f 5/4/2 6/1/2 32/2/2 31/3/2
f 6/2/3 7/3/3 33/4/3 32/1/3
f 8/2/1 14/3/1 34/4/1 7/1/1
f 7/2/3 34/3/3 35/4/3 33/1/3
f 14/1/5 36/2/5 35/3/5 34/4/5
f 11/4/2 5/1/2 31/2/2 37/3/2
f 15/2/1 38/3/1 39/4/1 14/1/1
f 14/2/3 39/3/3 40/4/3 36/1/3
f 38/1/5 41/2/5 40/3/5 39/4/5
f 18/4/2 11/1/2 37/2/2 42/3/2
f 20/2/1 43/3/1 38/4/1 15/1/1
f 20/1/6 44/2/6 45/3/6 43/4/6
f 43/2/1 46/3/1 47/4/1 38/1/1
f 38/2/3 47/3/3 48/4/3 41/1/3
f 46/1/5 49/2/5 48/3/5 47/4/5
f 43/1/6 45/2/6 49/3/6 46/4/6
f 23/4/2 18/1/2 42/2/2 50/3/2
f 26/1/5 51/2/5 44/3/5 20/4/5
f 52/2/1 29/3/1 24/4/1 23/1/1
f 52/4/2 23/1/2 50/2/2 53/3/2
f 52/1/6 53/2/6 54/3/6 29/4/6
f 30/1/5 55/2/5 51/3/5 26/4/5
f 29/1/6 54/2/6 55/3/6 30/4/6
f 31/4/2 32/1/2 57/2/2 56/3/2
f 32/2/3 33/3/3 58/4/3 57/1/3
f 33/2/3 35/3/3 59/4/3 58/1/3
f 36/1/5 60/2/5 59/3/5 35/4/5
f 37/4/2 31/1/2 56/2/2 61/3/2
f 36/2/3 40/3/3 62/4/3 60/1/3
f 41/2/1 48/3/1 63/4/1 40/1/1
f 40/2/3 63/3/3 64/4/3 62/1/3
f 65/1/4 62/2/4 64/3/4 66/4/4
f 48/1/5 66/2/5 64/3/5 63/4/5
f 49/1/5 80/2/5 66/3/5 48/4/5
f 50/4/2 42/1/2 79/2/2 81/3/2
f 51/2/1 82/3/1 45/4/1 44/1/1
f 83/1/4 84/2/4 85/3/4 86/4/4
f 51/1/6 83/2/6 86/3/6 82/4/6
f 82/2/1 87/3/1 49/4/1 45/1/1
f 86/1/4 85/2/4 80/3/4 88/4/4
f 87/1/5 88/2/5 80/3/5 49/4/5
f 82/1/6 86/2/6 88/3/6 87/4/6
f 53/4/2 50/1/2 81/2/2 89/3/2
f 53/1/6 89/2/6 90/3/6 54/4/6
f 55/1/5 91/2/5 83/3/5 51/4/5
f 54/1/6 90/2/6 91/3/6 55/4/6
f 56/4/2 57/1/2 93/2/2 92/3/2
f 57/2/3 58/3/3 94/4/3 93/1/3
f 92/1/4 93/2/4 94/3/4 95/4/4
f 58/2/3 59/3/3 96/4/3 94/1/3
f 95/1/4 94/2/4 96/3/4 97/4/4
f 60/1/5 97/2/5 96/3/5 59/4/5
f 61/4/2 56/1/2 92/2/2 98/3/2
f 60/2/3 62/3/3 99/4/3 97/1/3
f 100/1/4 97/2/4 99/3/4 101/4/4
f 65/1/5 101/2/5 99/3/5 62/4/5
f 79/4/2 61/1/2 98/2/2 102/3/2
f 103/1/4 100/2/4 101/3/4 104/4/4
f 84/1/6 103/2/6 104/3/6 85/4/6
f 65/2/3 66/3/3 105/4/3 101/1/3
f 104/1/4 101/2/4 105/3/4 106/4/4
f 80/1/5 106/2/5 105/3/5 66/4/5
f 85/1/6 104/2/6 106/3/6 80/4/6
f 81/4/2 79/1/2 102/2/2 107/3/2
f 83/1/5 108/2/5 103/3/5 84/4/5
f 89/4/2 81/1/2 107/2/2 109/3/2
f 89/1/6 109/2/6 110/3/6 90/4/6
f 91/1/5 111/2/5 108/3/5 83/4/5
f 90/1/6 110/2/6 111/3/6 91/4/6
f 98/4/2 92/1/2 113/2/2 112/3/2
f 92/2/3 95/3/3 114/4/3 113/1/3
f 112/1/4 113/2/4 114/3/4 115/4/4
f 95/2/3 97/3/3 116/4/3 114/1/3
f 115/1/4 114/2/4 116/3/4 117/4/4
f 100/1/5 117/2/5 116/3/5 97/4/5
f 102/4/2 98/1/2 112/2/2 118/3/2
f 118/1/4 112/2/4 115/3/4 119/4/4
f 119/1/4 115/2/4 117/3/4 120/4/4
f 103/1/5 120/2/5 117/3/5 100/4/5
f 107/4/2 102/1/2 118/2/2 121/3/2
f 121/1/4 118/2/4 119/3/4 122/4/4
f 122/1/4 119/2/4 120/3/4 123/4/4
f 108/1/5 123/2/5 120/3/5 103/4/5
f 109/4/2 107/1/2 121/2/2 124/3/2
f 124/1/4 121/2/4 122/3/4 125/4/4
f 109/1/6 124/2/6 125/3/6 110/4/6
f 125/1/4 122/2/4 123/3/4 126/4/4
f 111/1/5 126/2/5 123/3/5 108/4/5
f 110/1/6 125/2/6 126/3/6 111/4/6
