# Wavefront OBJ file made by Mineways version 12.06, http://mineways.com
# World: RepoMap
# Terrain file name: C:\Users\Alex Jasmin\Downloads\mineways\mineways\TileMaker\terrainExt_BareBones.png
# Color scheme: Standard
# Thu Apr 24 10:58:02 2025

# Selection location min to max: 41, -8, 35 to 45, 319, 39
#   Non-empty selection location min to max: 41, -8, 35 to 45, -3, 39

# Set render type: Wavefront OBJ absolute indices
# Units for the model vertex data itself: meters

# 124 vertices, 122 faces (244 triangles), 62 blocks, 0 billboards/bits
# block dimensions: X=5 by Y=6 (height) by Z=5 blocks
# Elevation shading: no
# Lighting: no
# Transparent water: no
# Map grid: no
# File type: Export all textures to three large images
# Texture output RGB: no
# Texture output A: no
# Texture output RGBA: no
# Export separate types: YES
# Export individual blocks: no
#   Material per family: YES
#   Split by block type: YES
# Make groups objects: no
# Custom material: YES
# Export lesser blocks: YES
# Fatten lesser blocks: no
# Simplify mesh: no
# Double all billboard faces: no
# Create composite overlay faces: no
# Center model: YES
# Use biomes: no
# Create block faces at the borders: YES
# Tree leaves solid: YES
# Rotate model 0.000000 degrees
# Make Z the up direction instead of Y: no
# Scale model by making each block 1000 mm high
# Data operation options:
#   Fill air bubbles: no; Seal off entrances: no; Fill in isolated tunnels in base of model: no
#   Connect parts sharing an edge: no; Connect corner tips: no; Weld all shared edges: no
#   Delete floating objects: trees and parts smaller than 16 blocks: no
#   Hollow out bottom of model, making the walls 1000 mm thick: no; Superhollow: no
# Melt snow blocks: no
#   Debug: show separate parts as colors: no
#   Debug: show weld blocks in bright colors: no

# Full world path: C:\Users\Alex Jasmin\AppData\Roaming\ModrinthApp\profiles\Minecraft Repo Map RESOURCE\saves\RepoMap
# Full terrainExt.png path: C:\Users\Alex Jasmin\Downloads\mineways\mineways\TileMaker\terrainExt_BareBones.png
# Full current path: C:\Users\Alex Jasmin\Downloads\mineways\mineways

# COMMON_MC_OBJ_START
# version: 1
# exporter: mineways
# world_name: RepoMap
# world_path: C:\Users\Alex Jasmin\AppData\Roaming\ModrinthApp\profiles\Minecraft Repo Map RESOURCE\saves\RepoMap
# export_bounds_min: (41, -8, 35)
# export_bounds_max: (45, 319, 39)
# export_offset: (-43.000000, 8.000000, -37.000000)
# block_scale: 1
# block_origin_offset: (0.000000, 0.000000, 0.000000)
# z_up: false
# texture_type: ATLAS
# has_split_blocks: true
# COMMON_MC_OBJ_END

mtllib Tree03.mtl

o RepoMap__41_-8_35_to_45_319_39
vn -1 0 0
vn 0 -1 0
vn 0 0 -1
vn 1 0 0
vn 0 1 0
vn 0 0 1
vn -0.707107 0 -0.707107
vn -0.707107 0 0.707107
vn 0.707107 0 -0.707107
vn 0.707107 0 0.707107
vn -0.707107 -0.707107 0
vn 0 -0.707107 -0.707107
vn 0.707107 -0.707107 0
vn 0 -0.707107 0.707107
vn -0.707107 0.707107 0
vn 0 0.707107 -0.707107
vn 0.707107 0.707107 0
vn 0 0.707107 0.707107
vn -0.92388 0 -0.382683
vn -0.92388 0 0.382683
vn 0.92388 0 -0.382683
vn 0.92388 0 0.382683
vn -0.382683 0 -0.92388
vn -0.382683 0 0.92388
vn 0.382683 0 -0.92388
vn 0.382683 0 0.92388
vn -0.397273 0.9177 0
vn 0.397273 -0.9177 0
vn 0.397273 0.9177 0
vn -0.397273 -0.9177 0
vn 0 0.9177 -0.397273
vn 0 -0.9177 0.397273
vn 0 0.9177 0.397273
vn 0 -0.9177 -0.397273
vn -0.440932 0.897541 0
vn 0.440932 -0.897541 0
vn 0.440932 0.897541 0
vn -0.440932 -0.897541 0
vn 0 0.897541 -0.440932
vn 0 -0.897541 0.440932
vn 0 0.897541 0.440932
vn 0 -0.897541 -0.440932
# oak_leaves
vt 0.915039062 0.983398438
vt 0.930664062 0.983398438
vt 0.930664062 0.999023438
vt 0.915039062 0.999023438
# oak_log
vt 0.352539062 0.983398438
vt 0.368164062 0.983398438
vt 0.368164062 0.999023438
vt 0.352539062 0.999023438
# oak_log_top
vt 0.370117188 0.983398438
vt 0.385742188 0.983398438
vt 0.385742188 0.999023438
vt 0.370117188 0.999023438
v -2 3 -2
v -2 3 -1
v -2 4 -1
v -2 4 -2
v -1 3 -1
v -1 3 -2
v -1 4 -2
v -1 4 -1
v -2 2 -1
v -2 2 0
v -2 3 0
v -1 2 0
v -1 2 -1
v -2 4 0
v -1 4 0
v -2 2 1
v -2 3 1
v -1 2 1
v -2 4 1
v -1 4 1
v -2 2 2
v -2 3 2
v -1 2 2
v -2 4 2
v -1 4 2
v -2 2 3
v -2 3 3
v -1 2 3
v -1 3 3
v -2 4 3
v -1 4 3
v -1 2 -2
v 0 2 -1
v 0 2 -2
v 0 3 -2
v 0 4 -2
v 0 4 -1
v 0 2 0
v -1 5 0
v -1 5 -1
v 0 5 -1
v 0 5 0
v 0 2 1
v -1 5 1
v 0 4 1
v 0 5 1
v -1 6 1
v -1 6 0
v 0 6 0
v 0 6 1
v 0 2 2
v 0 4 2
v 0 2 3
v 0 3 3
v 0 4 3
v 1 2 -1
v 1 2 -2
v 1 3 -2
v 1 4 -2
v 1 4 -1
v 1 2 0
v 1 5 -1
v 0 6 -1
v 1 6 -1
v 1 5 0
v 1 6 0
v 0 0 0
v 0 0 1
v 0 1 1
v 0 1 0
v 1 0 1
v 1 0 0
v 1 1 0
v 1 1 1
v 1 2 1
v 1 6 1
v 1 2 2
v 0 5 2
v 1 4 2
v 1 4 1
v 1 5 1
v 1 5 2
v 0 6 2
v 1 6 2
v 1 2 3
v 1 3 3
v 1 4 3
v 2 2 -1
v 2 2 -2
v 2 3 -2
v 2 4 -2
v 2 4 -1
v 2 2 0
v 2 5 -1
v 2 4 0
v 2 5 0
v 2 2 1
v 2 4 1
v 2 5 1
v 2 6 0
v 2 6 1
v 2 2 2
v 2 4 2
v 2 2 3
v 2 3 2
v 2 3 3
v 2 4 3
v 3 2 -1
v 3 2 -2
v 3 3 -2
v 3 3 -1
v 3 4 -2
v 3 4 -1
v 3 2 0
v 3 3 0
v 3 4 0
v 3 2 1
v 3 3 1
v 3 4 1
v 3 2 2
v 3 3 2
v 3 4 2
v 3 3 3
v 3 4 3

g Oak_Log
usemtl Oak_Log
f 68/6/1 69/7/1 70/8/1 67/5/1
f 68/12/2 67/9/2 72/10/2 71/11/2
f 67/6/3 70/7/3 73/8/3 72/5/3
f 71/5/4 72/6/4 73/7/4 74/8/4
f 68/5/6 71/6/6 74/7/6 69/8/6
f 69/6/1 43/7/1 38/8/1 70/5/1
f 70/6/3 38/7/3 61/8/3 73/5/3
f 74/5/4 73/6/4 61/7/4 75/8/4
f 69/5/6 74/6/6 75/7/6 43/8/6

g Oak_Leaves
usemtl Oak_Leaves
f 2/2/1 3/3/1 4/4/1 1/1/1
f 2/4/2 1/1/2 6/2/2 5/3/2
f 1/2/3 4/3/3 7/4/3 6/1/3
f 3/1/5 8/2/5 7/3/5 4/4/5
f 10/2/1 11/3/1 2/4/1 9/1/1
f 10/4/2 9/1/2 13/2/2 12/3/2
f 9/2/3 2/3/3 5/4/3 13/1/3
f 11/2/1 14/3/1 3/4/1 2/1/1
f 14/1/5 15/2/5 8/3/5 3/4/5
f 16/2/1 17/3/1 11/4/1 10/1/1
f 16/4/2 10/1/2 12/2/2 18/3/2
f 17/2/1 19/3/1 14/4/1 11/1/1
f 19/1/5 20/2/5 15/3/5 14/4/5
f 21/2/1 22/3/1 17/4/1 16/1/1
f 21/4/2 16/1/2 18/2/2 23/3/2
f 22/2/1 24/3/1 19/4/1 17/1/1
f 24/1/5 25/2/5 20/3/5 19/4/5
f 26/2/1 27/3/1 22/4/1 21/1/1
f 26/4/2 21/1/2 23/2/2 28/3/2
f 26/1/6 28/2/6 29/3/6 27/4/6
f 27/2/1 30/3/1 24/4/1 22/1/1
f 30/1/5 31/2/5 25/3/5 24/4/5
f 27/1/6 29/2/6 31/3/6 30/4/6
f 13/2/1 5/3/1 6/4/1 32/1/1
f 13/4/2 32/1/2 34/2/2 33/3/2
f 32/2/3 6/3/3 35/4/3 34/1/3
f 6/2/3 7/3/3 36/4/3 35/1/3
f 8/1/5 37/2/5 36/3/5 7/4/5
f 12/4/2 13/1/2 33/2/2 38/3/2
f 15/2/1 39/3/1 40/4/1 8/1/1
f 8/2/3 40/3/3 41/4/3 37/1/3
f 39/1/5 42/2/5 41/3/5 40/4/5
f 18/4/2 12/1/2 38/2/2 43/3/2
f 20/2/1 44/3/1 39/4/1 15/1/1
f 20/1/6 45/2/6 46/3/6 44/4/6
f 44/2/1 47/3/1 48/4/1 39/1/1
f 39/2/3 48/3/3 49/4/3 42/1/3
f 47/1/5 50/2/5 49/3/5 48/4/5
f 44/1/6 46/2/6 50/3/6 47/4/6
f 23/4/2 18/1/2 43/2/2 51/3/2
f 25/1/5 52/2/5 45/3/5 20/4/5
f 28/4/2 23/1/2 51/2/2 53/3/2
f 28/1/6 53/2/6 54/3/6 29/4/6
f 31/1/5 55/2/5 52/3/5 25/4/5
f 29/1/6 54/2/6 55/3/6 31/4/6
f 33/4/2 34/1/2 57/2/2 56/3/2
f 34/2/3 35/3/3 58/4/3 57/1/3
f 35/2/3 36/3/3 59/4/3 58/1/3
f 37/1/5 60/2/5 59/3/5 36/4/5
f 38/4/2 33/1/2 56/2/2 61/3/2
f 37/2/3 41/3/3 62/4/3 60/1/3
f 42/2/1 49/3/1 63/4/1 41/1/1
f 41/2/3 63/3/3 64/4/3 62/1/3
f 65/1/4 62/2/4 64/3/4 66/4/4
f 49/1/5 66/2/5 64/3/5 63/4/5
f 50/1/5 76/2/5 66/3/5 49/4/5
f 51/4/2 43/1/2 75/2/2 77/3/2
f 52/2/1 78/3/1 46/4/1 45/1/1
f 79/1/4 80/2/4 81/3/4 82/4/4
f 52/1/6 79/2/6 82/3/6 78/4/6
f 78/2/1 83/3/1 50/4/1 46/1/1
f 82/1/4 81/2/4 76/3/4 84/4/4
f 83/1/5 84/2/5 76/3/5 50/4/5
f 78/1/6 82/2/6 84/3/6 83/4/6
f 53/4/2 51/1/2 77/2/2 85/3/2
f 53/1/6 85/2/6 86/3/6 54/4/6
f 55/1/5 87/2/5 79/3/5 52/4/5
f 54/1/6 86/2/6 87/3/6 55/4/6
f 56/4/2 57/1/2 89/2/2 88/3/2
f 57/2/3 58/3/3 90/4/3 89/1/3
f 58/2/3 59/3/3 91/4/3 90/1/3
f 60/1/5 92/2/5 91/3/5 59/4/5
f 61/4/2 56/1/2 88/2/2 93/3/2
f 60/2/3 62/3/3 94/4/3 92/1/3
f 95/1/4 92/2/4 94/3/4 96/4/4
f 65/1/5 96/2/5 94/3/5 62/4/5
f 75/4/2 61/1/2 93/2/2 97/3/2
f 98/1/4 95/2/4 96/3/4 99/4/4
f 80/1/6 98/2/6 99/3/6 81/4/6
f 65/2/3 66/3/3 100/4/3 96/1/3
f 99/1/4 96/2/4 100/3/4 101/4/4
f 76/1/5 101/2/5 100/3/5 66/4/5
f 81/1/6 99/2/6 101/3/6 76/4/6
f 77/4/2 75/1/2 97/2/2 102/3/2
f 79/1/5 103/2/5 98/3/5 80/4/5
f 85/4/2 77/1/2 102/2/2 104/3/2
f 104/1/4 102/2/4 105/3/4 106/4/4
f 85/1/6 104/2/6 106/3/6 86/4/6
f 87/1/5 107/2/5 103/3/5 79/4/5
f 86/1/6 106/2/6 107/3/6 87/4/6
f 88/4/2 89/1/2 109/2/2 108/3/2
f 89/2/3 90/3/3 110/4/3 109/1/3
f 108/1/4 109/2/4 110/3/4 111/4/4
f 90/2/3 91/3/3 112/4/3 110/1/3
f 111/1/4 110/2/4 112/3/4 113/4/4
f 92/1/5 113/2/5 112/3/5 91/4/5
f 93/4/2 88/1/2 108/2/2 114/3/2
f 114/1/4 108/2/4 111/3/4 115/4/4
f 115/1/4 111/2/4 113/3/4 116/4/4
f 95/1/5 116/2/5 113/3/5 92/4/5
f 97/4/2 93/1/2 114/2/2 117/3/2
f 117/1/4 114/2/4 115/3/4 118/4/4
f 118/1/4 115/2/4 116/3/4 119/4/4
f 98/1/5 119/2/5 116/3/5 95/4/5
f 102/4/2 97/1/2 117/2/2 120/3/2
f 120/1/4 117/2/4 118/3/4 121/4/4
f 102/1/6 120/2/6 121/3/6 105/4/6
f 121/1/4 118/2/4 119/3/4 122/4/4
f 103/1/5 122/2/5 119/3/5 98/4/5
f 106/4/2 105/1/2 121/2/2 123/3/2
f 123/1/4 121/2/4 122/3/4 124/4/4
f 107/1/5 124/2/5 122/3/5 103/4/5
f 106/1/6 123/2/6 124/3/6 107/4/6
